<svg width="300" height="86" viewBox="0 0 300 86" fill="none" xmlns="http://www.w3.org/2000/svg" role="img" aria-labelledby="title desc">
  <title id="title">ProceSG</title>
  <desc id="desc">ProceSG ESG to Value Creation logo</desc>
  <path d="M23.8 43.1c13.2-18.4 39.1-28 73.8-22.1 5.4.9 10.5 2.1 15.2 3.5-8.9-1.8-18.9-2.6-29.5-2.1-31.2 1.4-52.9 13-59.5 20.7Z" fill="#1471B8"/>
  <path d="M16.8 49.5c22.5 13.7 56.8 16.1 85.9 4.5 9.1-3.6 17-8.5 23.1-14.1-6.2 15.3-23.7 26.8-47.2 30.5-28.5 4.5-54.7-3.7-61.8-20.9Z" fill="#0D58A6"/>
  <path d="M25 54c24.5 7.4 57.4 3.6 81.7-11 8.9-5.3 15.6-11.5 20.1-18.1-2.1 19.1-18.5 34.8-43.7 41.2C58.5 72.3 34.8 67.6 25 54Z" fill="#078943"/>
  <path d="M39.9 31.5h10.6v20.8H39.9V31.5Zm17.8-7.7h10.6v28.5H57.7V23.8Zm17.8-5.2h10.7v33.7H75.5V18.6Zm18.1 1.8h10.7v31.9H93.6V20.4Z" fill="#26B43B"/>
  <path d="M107.9 29.5c14.5-6.9 29.4-9.2 43.7-6.9-1.3 10.8-7.5 20.8-18 29-13.6 10.7-29.8 13.8-43.9 9.5 13.6-8.7 20.6-18.9 18.2-31.6Z" fill="#0B963C"/>
  <path d="M114.2 33.1c10.6-5 21.8-6.8 33.3-5.3-2.8 6.7-7.8 12.8-14.9 18.2-8.3 6.2-18.1 9.5-28.1 9.7 8.6-6.6 12.3-14.1 9.7-22.6Z" fill="#38C64D"/>
  <path d="M14.5 38.9C26.1 27.6 43.7 20 64.6 18.4c-16.7 3.8-31 11.8-40.8 22.9-1.9 2.1-4.8 2.9-7.5 2.1l-1.8-.6v-3.9Z" fill="#FDBE42"/>
  <text x="141" y="40" fill="#FFFFFF" font-family="Aptos Display, Segoe UI, Arial, sans-serif" font-size="34" font-weight="760">Proce</text>
  <text x="236" y="40" fill="#35BE3E" font-family="Aptos Display, Segoe UI, Arial, sans-serif" font-size="34" font-weight="760">SG</text>
  <text x="143" y="63" fill="#FFFFFF" font-family="Aptos, Segoe UI, Arial, sans-serif" font-size="14" font-weight="700">ESG to Value Creation</text>
</svg>
